<svg width="494" height="990" viewBox="0 0 494 990" fill="none" xmlns="http://www.w3.org/2000/svg">
<path d="M2.50098 -20.5249L2.50098 134.352L162.542 134.352L162.542 -20.5249L2.50098 -20.5249Z" fill="#2A42C0" stroke="black" stroke-width="5"/>
<path d="M241.83 -21.0911C158.22 -21.0911 90.1598 48.2036 88.8657 134.351L251.792 134.351L251.792 -21.0911L241.83 -21.0911Z" fill="#2A42C0" stroke="black" stroke-width="5"/>
<path d="M302.821 -20.5249L302.821 179.807L462.862 179.807L462.862 -20.5249L302.821 -20.5249Z" fill="#2C2C2C" stroke="black" stroke-width="5"/>
<path d="M570.372 -28.4231C484.16 -27.057 414.401 44.8454 413.119 134.003L570.372 134.003L570.372 -28.4231Z" fill="#2A42C0" stroke="black" stroke-width="5"/>
<path d="M255.847 134.003L403.535 134.003L255.847 -18.3948L255.847 134.003Z" fill="white" stroke="black" stroke-width="5"/>
<path d="M2.50098 73.8081C88.7135 75.1742 158.472 147.077 159.754 236.234L2.50098 236.234L2.50098 73.8081Z" fill="white" stroke="black" stroke-width="5"/>
<path d="M307.229 86.0596V236.234L91.7236 236.234L91.7236 86.0596L307.229 86.0596Z" fill="#2A42C0" stroke="black" stroke-width="5"/>
<path d="M578.61 90.762V291.094L412.39 291.094L412.39 90.762L578.61 90.762Z" fill="#2C2C2C" stroke="black" stroke-width="5"/>
<path d="M311.59 82.8635C397.803 84.2297 467.561 156.132 468.843 245.289L311.59 245.289V82.8635Z" fill="#2A42C0" stroke="black" stroke-width="5"/>
<path d="M626.115 245.289L478.427 245.289L626.115 92.8918V245.289Z" fill="#2A42C0" stroke="black" stroke-width="5"/>
<path d="M307.229 237.802L135.288 237.802L307.229 85.0156V237.802Z" fill="#2C2C2C" stroke="black" stroke-width="5"/>
<path d="M2.50049 513.646C88.713 512.279 158.471 440.377 159.753 351.22L2.50049 351.22L2.50049 513.646Z" fill="#2A42C0" stroke="black" stroke-width="5"/>
<path d="M307.229 501.394L307.229 351.219L91.7231 351.219L91.7231 501.394L307.229 501.394Z" fill="white" stroke="black" stroke-width="5"/>
<path d="M579.14 496.692L579.14 296.36L419.099 296.36L419.099 496.692L579.14 496.692Z" fill="#2C2C2C" stroke="black" stroke-width="5"/>
<path d="M311.59 504.59C397.802 503.224 467.561 431.322 468.843 342.164L311.59 342.164L311.59 504.59Z" fill="#2A42C0" stroke="black" stroke-width="5"/>
<path d="M626.115 342.164L478.427 342.164L626.115 494.562L626.115 342.164Z" fill="white" stroke="black" stroke-width="5"/>
<path d="M307.849 453.012L307.849 355.655L126.545 355.655L299.09 508.979L307.849 453.012Z" fill="#2C2C2C" stroke="black" stroke-width="5"/>
<path d="M2.5 392.976V230.262L161.802 230.262V392.976H2.5Z" fill="white" stroke="black" stroke-width="5"/>
<path d="M242.043 386.707C160.338 386.707 93.712 317.029 92.4541 230.262L251.735 230.262V386.707H242.043Z" fill="#2A42C0" stroke="black" stroke-width="5"/>
<path d="M256.735 385.139V184.807L471.381 184.807V385.139L256.735 385.139Z" fill="#2C2C2C" stroke="black" stroke-width="5"/>
<path d="M570.372 393.303C484.159 391.937 414.401 320.035 413.119 230.878L570.372 230.878V393.303Z" fill="#2A42C0" stroke="black" stroke-width="5"/>
<path d="M256.735 230.045L404.424 230.045L256.735 382.443V230.045Z" fill="#2A42C0" stroke="black" stroke-width="5"/>
<path d="M2.50098 452.835L2.50098 607.712L162.542 607.712L162.542 452.835L2.50098 452.835Z" fill="#2A42C0" stroke="black" stroke-width="5"/>
<path d="M225.39 418.352C148.17 418.352 85.0089 487.224 83.8062 573.229L234.441 573.229L234.441 418.352H225.39Z" fill="#2A42C0" stroke="black" stroke-width="5"/>
<path d="M302.821 452.835L302.821 653.167L462.862 653.167L462.862 452.835L302.821 452.835Z" fill="#2C2C2C" stroke="black" stroke-width="5"/>
<path d="M570.372 444.937C484.16 446.303 414.401 518.206 413.119 607.363L570.372 607.363L570.372 444.937Z" fill="#2A42C0" stroke="black" stroke-width="5"/>
<path d="M238.551 607.363L386.24 607.363L238.551 454.966L238.551 607.363Z" fill="white" stroke="black" stroke-width="5"/>
<path d="M2.50098 547.168C88.7135 548.535 158.472 620.437 159.754 709.594H2.50098L2.50098 547.168Z" fill="white" stroke="black" stroke-width="5"/>
<path d="M307.229 559.42V709.595H91.7236L91.7236 559.42H307.229Z" fill="#2A42C0" stroke="black" stroke-width="5"/>
<path d="M578.61 564.122V764.454H412.39L412.39 564.122H578.61Z" fill="#2C2C2C" stroke="black" stroke-width="5"/>
<path d="M311.59 556.224C397.803 557.59 467.561 629.493 468.843 718.65H311.59V556.224Z" fill="#2A42C0" stroke="black" stroke-width="5"/>
<path d="M626.115 718.65H478.427L626.115 566.252V718.65Z" fill="#2A42C0" stroke="black" stroke-width="5"/>
<path d="M307.229 711.162H135.288L307.229 558.376V711.162Z" fill="#2C2C2C" stroke="black" stroke-width="5"/>
<path d="M2.50098 987.006C88.7135 985.64 158.472 913.737 159.754 824.58L2.50098 824.58L2.50098 987.006Z" fill="#2A42C0" stroke="black" stroke-width="5"/>
<path d="M307.229 974.755L307.229 824.58L91.7236 824.58L91.7236 974.755L307.229 974.755Z" fill="white" stroke="black" stroke-width="5"/>
<path d="M579.141 970.052L579.141 769.72L419.1 769.72L419.1 970.052L579.141 970.052Z" fill="#2C2C2C" stroke="black" stroke-width="5"/>
<path d="M311.59 977.95C397.803 976.584 467.561 904.682 468.843 815.525L311.59 815.525L311.59 977.95Z" fill="#2A42C0" stroke="black" stroke-width="5"/>
<path d="M626.115 815.525L478.427 815.525L626.115 967.922L626.115 815.525Z" fill="white" stroke="black" stroke-width="5"/>
<path d="M307.229 823.012L135.288 823.012L307.229 975.799L307.229 823.012Z" fill="#2C2C2C" stroke="black" stroke-width="5"/>
<path d="M2.50098 858.766V703.889H162.542V858.766H2.50098Z" fill="white" stroke="black" stroke-width="5"/>
<path d="M242.043 860.067C160.339 860.067 93.7124 790.389 92.4546 703.622H251.736V860.067H242.043Z" fill="#2A42C0" stroke="black" stroke-width="5"/>
<path d="M303.432 858.499V658.167H471.381V858.499H303.432Z" fill="#2C2C2C" stroke="black" stroke-width="5"/>
<path d="M570.372 866.664C484.16 865.298 414.401 793.395 413.119 704.238H570.372V866.664Z" fill="#2A42C0" stroke="black" stroke-width="5"/>
<path d="M255.847 704.238H403.535L255.847 856.636V704.238Z" fill="#2A42C0" stroke="black" stroke-width="5"/>
</svg>
