<svg width="40" height="54" viewBox="0 0 40 54" fill="none" xmlns="http://www.w3.org/2000/svg">
<path d="M0 6.75C0 4.95979 0.702379 3.2429 1.95262 1.97703C3.20286 0.711159 4.89856 0 6.66667 0L33.3333 0C35.1014 0 36.7971 0.711159 38.0474 1.97703C39.2976 3.2429 40 4.95979 40 6.75V47.25C40 49.0402 39.2976 50.7571 38.0474 52.023C36.7971 53.2888 35.1014 54 33.3333 54H6.66667C4.89856 54 3.20286 53.2888 1.95262 52.023C0.702379 50.7571 0 49.0402 0 47.25V6.75ZM6.66667 8.4375V15.1875C6.66667 15.6351 6.84226 16.0643 7.15482 16.3807C7.46738 16.6972 7.89131 16.875 8.33333 16.875H31.6667C32.1087 16.875 32.5326 16.6972 32.8452 16.3807C33.1577 16.0643 33.3333 15.6351 33.3333 15.1875V8.4375C33.3333 7.98995 33.1577 7.56073 32.8452 7.24426C32.5326 6.92779 32.1087 6.75 31.6667 6.75H8.33333C7.89131 6.75 7.46738 6.92779 7.15482 7.24426C6.84226 7.56073 6.66667 7.98995 6.66667 8.4375ZM6.66667 21.9375V25.3125C6.66667 25.7601 6.84226 26.1893 7.15482 26.5057C7.46738 26.8222 7.89131 27 8.33333 27H11.6667C12.1087 27 12.5326 26.8222 12.8452 26.5057C13.1577 26.1893 13.3333 25.7601 13.3333 25.3125V21.9375C13.3333 21.4899 13.1577 21.0607 12.8452 20.7443C12.5326 20.4278 12.1087 20.25 11.6667 20.25H8.33333C7.89131 20.25 7.46738 20.4278 7.15482 20.7443C6.84226 21.0607 6.66667 21.4899 6.66667 21.9375ZM8.33333 30.375C7.89131 30.375 7.46738 30.5528 7.15482 30.8693C6.84226 31.1857 6.66667 31.6149 6.66667 32.0625V35.4375C6.66667 35.8851 6.84226 36.3143 7.15482 36.6307C7.46738 36.9472 7.89131 37.125 8.33333 37.125H11.6667C12.1087 37.125 12.5326 36.9472 12.8452 36.6307C13.1577 36.3143 13.3333 35.8851 13.3333 35.4375V32.0625C13.3333 31.6149 13.1577 31.1857 12.8452 30.8693C12.5326 30.5528 12.1087 30.375 11.6667 30.375H8.33333ZM6.66667 42.1875V45.5625C6.66667 46.0101 6.84226 46.4393 7.15482 46.7557C7.46738 47.0722 7.89131 47.25 8.33333 47.25H11.6667C12.1087 47.25 12.5326 47.0722 12.8452 46.7557C13.1577 46.4393 13.3333 46.0101 13.3333 45.5625V42.1875C13.3333 41.7399 13.1577 41.3107 12.8452 40.9943C12.5326 40.6778 12.1087 40.5 11.6667 40.5H8.33333C7.89131 40.5 7.46738 40.6778 7.15482 40.9943C6.84226 41.3107 6.66667 41.7399 6.66667 42.1875ZM18.3333 20.25C17.8913 20.25 17.4674 20.4278 17.1548 20.7443C16.8423 21.0607 16.6667 21.4899 16.6667 21.9375V25.3125C16.6667 25.7601 16.8423 26.1893 17.1548 26.5057C17.4674 26.8222 17.8913 27 18.3333 27H21.6667C22.1087 27 22.5326 26.8222 22.8452 26.5057C23.1577 26.1893 23.3333 25.7601 23.3333 25.3125V21.9375C23.3333 21.4899 23.1577 21.0607 22.8452 20.7443C22.5326 20.4278 22.1087 20.25 21.6667 20.25H18.3333ZM16.6667 32.0625V35.4375C16.6667 35.8851 16.8423 36.3143 17.1548 36.6307C17.4674 36.9472 17.8913 37.125 18.3333 37.125H21.6667C22.1087 37.125 22.5326 36.9472 22.8452 36.6307C23.1577 36.3143 23.3333 35.8851 23.3333 35.4375V32.0625C23.3333 31.6149 23.1577 31.1857 22.8452 30.8693C22.5326 30.5528 22.1087 30.375 21.6667 30.375H18.3333C17.8913 30.375 17.4674 30.5528 17.1548 30.8693C16.8423 31.1857 16.6667 31.6149 16.6667 32.0625ZM18.3333 40.5C17.8913 40.5 17.4674 40.6778 17.1548 40.9943C16.8423 41.3107 16.6667 41.7399 16.6667 42.1875V45.5625C16.6667 46.0101 16.8423 46.4393 17.1548 46.7557C17.4674 47.0722 17.8913 47.25 18.3333 47.25H21.6667C22.1087 47.25 22.5326 47.0722 22.8452 46.7557C23.1577 46.4393 23.3333 46.0101 23.3333 45.5625V42.1875C23.3333 41.7399 23.1577 41.3107 22.8452 40.9943C22.5326 40.6778 22.1087 40.5 21.6667 40.5H18.3333ZM26.6667 21.9375V25.3125C26.6667 25.7601 26.8423 26.1893 27.1548 26.5057C27.4674 26.8222 27.8913 27 28.3333 27H31.6667C32.1087 27 32.5326 26.8222 32.8452 26.5057C33.1577 26.1893 33.3333 25.7601 33.3333 25.3125V21.9375C33.3333 21.4899 33.1577 21.0607 32.8452 20.7443C32.5326 20.4278 32.1087 20.25 31.6667 20.25H28.3333C27.8913 20.25 27.4674 20.4278 27.1548 20.7443C26.8423 21.0607 26.6667 21.4899 26.6667 21.9375ZM28.3333 30.375C27.8913 30.375 27.4674 30.5528 27.1548 30.8693C26.8423 31.1857 26.6667 31.6149 26.6667 32.0625V45.5625C26.6667 46.0101 26.8423 46.4393 27.1548 46.7557C27.4674 47.0722 27.8913 47.25 28.3333 47.25H31.6667C32.1087 47.25 32.5326 47.0722 32.8452 46.7557C33.1577 46.4393 33.3333 46.0101 33.3333 45.5625V32.0625C33.3333 31.6149 33.1577 31.1857 32.8452 30.8693C32.5326 30.5528 32.1087 30.375 31.6667 30.375H28.3333Z" fill="black"/>
</svg>
