<svg width="45" height="53" viewBox="0 0 45 53" fill="none" xmlns="http://www.w3.org/2000/svg">
<path fill-rule="evenodd" clip-rule="evenodd" d="M0 5.3C0 3.89435 0.547045 2.54628 1.52079 1.55233C2.49454 0.558391 3.81522 0 5.19231 0L33.6012 0L45 11.6353V47.7C45 49.1056 44.453 50.4537 43.4792 51.4477C42.5055 52.4416 41.1848 53 39.8077 53H5.19231C3.81522 53 2.49454 52.4416 1.52079 51.4477C0.547045 50.4537 0 49.1056 0 47.7V5.3ZM20.7692 14.1333H10.3846V17.6667H20.7692V14.1333ZM34.6154 24.7333H10.3846V28.2667H34.6154V24.7333ZM18.3635 38.5416C16.965 38.9232 15.8712 40.015 15.4904 41.1916L12.2019 40.0751C12.9738 37.7183 14.9954 35.8068 17.4635 35.1284C19.9108 34.4571 22.7042 35.0224 25.1204 37.2873C25.8473 37.0729 26.565 36.9469 27.2735 36.9092C29.1427 36.8067 30.8146 37.2873 32.2512 37.8985C33.3069 38.3473 34.3281 38.9126 35.1935 39.3896C35.4658 39.5451 35.7219 39.6864 35.9619 39.8136C37.08 40.4143 37.6927 40.6333 38.0769 40.6333V44.1667C36.7269 44.1667 35.3977 43.5024 34.3523 42.9441L33.4108 42.4283C32.6014 41.963 31.7695 41.5397 30.9185 41.1598C29.7623 40.6651 28.6235 40.3754 27.4604 40.439C27.2868 40.4488 27.1136 40.4653 26.9412 40.4885L26.9446 40.5379C27.0381 41.6827 26.5742 42.6261 25.9754 43.3045C24.8746 44.5553 23.0781 45.2125 21.7281 45.4599C21.0283 45.6009 20.3114 45.6307 19.6027 45.5482C19.2008 45.4957 18.8128 45.3637 18.4604 45.1595C18.1859 44.9992 17.9496 44.7788 17.7683 44.5144C17.5869 44.2499 17.4651 43.9477 17.4115 43.6296C17.3274 43.0351 17.4645 42.43 17.7958 41.9336C18.048 41.5574 18.3536 41.2216 18.7027 40.9372C19.3604 40.3825 20.3123 39.7818 21.5896 39.1246L21.6831 39.0539C21.1922 38.7429 20.6445 38.537 20.0732 38.4489C19.5019 38.3608 18.9224 38.3924 18.3635 38.5416Z" fill="black"/>
</svg>
