<svg width="49" height="53" viewBox="0 0 49 53" fill="none" xmlns="http://www.w3.org/2000/svg">
<path d="M49 50.1709C49 50.9212 48.7132 51.6408 48.2027 52.1714C47.6922 52.7019 46.9998 53 46.2778 53H2.72222C2.00024 53 1.30784 52.7019 0.797321 52.1714C0.286805 51.6408 6.55267e-07 50.9212 6.55267e-07 50.1709V20.4367C-0.00028715 20.0056 0.0942356 19.5801 0.276349 19.1928C0.458463 18.8054 0.723349 18.4664 1.05078 18.2017L22.8286 0.59608C23.3064 0.20975 23.8946 0 24.5 0C25.1054 0 25.6936 0.20975 26.1714 0.59608L47.9492 18.2017C48.2767 18.4664 48.5415 18.8054 48.7237 19.1928C48.9058 19.5801 49.0003 20.0056 49 20.4367V50.1709Z" fill="black"/>
</svg>
