<svg width="44" height="55" viewBox="0 0 44 55" fill="none" xmlns="http://www.w3.org/2000/svg">
<path fill-rule="evenodd" clip-rule="evenodd" d="M0 2.74999C0 2.02065 0.289732 1.32118 0.805457 0.805454C1.32118 0.28973 2.02065 0 2.75 0H41.25C41.9793 0 42.6788 0.28973 43.1945 0.805454C43.7103 1.32118 44 2.02065 44 2.74999V52.2498C44 52.7755 43.8494 53.2902 43.5659 53.7329C43.2824 54.1757 42.878 54.5278 42.4005 54.7478C41.923 54.9677 41.3925 55.0462 40.8718 54.9739C40.3511 54.9016 39.862 54.6815 39.4625 54.3398L36.6217 51.9061C36.1234 51.4793 35.489 51.2447 34.8329 51.2447C34.1768 51.2447 33.5423 51.4793 33.044 51.9061L30.206 54.3371C29.7075 54.7646 29.0725 54.9996 28.4158 54.9996C27.759 54.9996 27.124 54.7646 26.6255 54.3371L23.7903 51.9061C23.2918 51.4786 22.6567 51.2435 22 51.2435C21.3433 51.2435 20.7082 51.4786 20.2097 51.9061L17.3745 54.3371C16.876 54.7646 16.241 54.9996 15.5842 54.9996C14.9275 54.9996 14.2925 54.7646 13.794 54.3371L10.956 51.9061C10.4577 51.4793 9.82322 51.2447 9.16712 51.2447C8.51103 51.2447 7.87656 51.4793 7.37825 51.9061L4.54025 54.3371C4.14099 54.6795 3.65191 54.9002 3.13101 54.9731C2.61011 55.046 2.07923 54.9679 1.60133 54.7482C1.12344 54.5285 0.718573 54.1764 0.434747 53.7336C0.15092 53.2907 4.08827e-05 52.7758 0 52.2498V2.74999ZM13.75 11C13.0207 11 12.3212 11.2897 11.8055 11.8054C11.2897 12.3211 11 13.0206 11 13.75C11 14.4793 11.2897 15.1788 11.8055 15.6945C12.3212 16.2102 13.0207 16.4999 13.75 16.4999H30.25C30.9793 16.4999 31.6788 16.2102 32.1945 15.6945C32.7103 15.1788 33 14.4793 33 13.75C33 13.0206 32.7103 12.3211 32.1945 11.8054C31.6788 11.2897 30.9793 11 30.25 11H13.75ZM13.75 21.9999C13.0207 21.9999 12.3212 22.2897 11.8055 22.8054C11.2897 23.3211 11 24.0206 11 24.7499C11 25.4793 11.2897 26.1787 11.8055 26.6945C12.3212 27.2102 13.0207 27.4999 13.75 27.4999H30.25C30.9793 27.4999 31.6788 27.2102 32.1945 26.6945C32.7103 26.1787 33 25.4793 33 24.7499C33 24.0206 32.7103 23.3211 32.1945 22.8054C31.6788 22.2897 30.9793 21.9999 30.25 21.9999H13.75ZM16.5 35.7499C16.5 35.0205 16.7897 34.3211 17.3055 33.8053C17.8212 33.2896 18.5207 32.9999 19.25 32.9999H30.25C30.9793 32.9999 31.6788 33.2896 32.1945 33.8053C32.7103 34.3211 33 35.0205 33 35.7499C33 36.4792 32.7103 37.1787 32.1945 37.6944C31.6788 38.2101 30.9793 38.4999 30.25 38.4999H19.25C18.5207 38.4999 17.8212 38.2101 17.3055 37.6944C16.7897 37.1787 16.5 36.4792 16.5 35.7499Z" fill="black"/>
</svg>
